# xmcd CD database file
#
# Track frame offsets:
#	150
#	61817
#	101238
#	111378
#	132905
#	164676
#	183361
#	193675
#
# Disc length: 2880 seconds
#
# Revision: 3
# Processed by: cddbd v1.5.2PL0 Copyright (c) Steve Scherf et al.
# Submitted via: CDex 1.51
#
DISCID=740b3e08
DTITLE=Bright Sheng - Spring Dreams - Fantasies - Tibetan Dance  (Singapore Chinese Orchestra, Tsung Yeh)
DYEAR=2007
DGENRE=Musique Contemporaine
TTITLE0=Spring Dreams  (1999) - I. Midnight Bells
TTITLE1=Spring Dreams  (1999) - II. Spring Opera
TTITLE2=Three Fantasies  (2006) - N°1 - Dream Song
TTITLE3=Three Fantasies  (2006) - N°2 - Tibetan Air
TTITLE4=Three Fantasies  (2006) - N°3 - Kazakhstan Love Song
TTITLE5=Tibetan Dance  (2001) - I. Prelude
TTITLE6=Tibetan Dance  (2001) - II. Song
TTITLE7=Tibetan Dance  (2001) - III. Tibetan Dance
EXTD=YEAR: 2007
EXTT0=
EXTT1=
EXTT2=
EXTT3=
EXTT4=
EXTT5=
EXTT6=
EXTT7=
PLAYORDER=
